HIERARCHY
ROOT Hips
{
	OFFSET 0.000000 0.000000 0.000000
	CHANNELS 6 Xposition Yposition Zposition Zrotation Yrotation Xrotation 
	JOINT LHipJoint
	{
		OFFSET 0.000000 0.000000 0.000000
		CHANNELS 3 Zrotation Yrotation Xrotation
		JOINT LeftUpLeg
		{
			OFFSET 1.363060 -1.794630 0.839290
			CHANNELS 3 Zrotation Yrotation Xrotation
			JOINT LeftLeg
			{
				OFFSET 2.448110 -6.726130 0.000000
				CHANNELS 3 Zrotation Yrotation Xrotation
				JOINT LeftFoot
				{
					OFFSET 2.562200 -7.039590 0.000000
					CHANNELS 3 Zrotation Yrotation Xrotation
					JOINT LeftToeBase
					{
						OFFSET 0.157640 -0.433110 2.322550
						CHANNELS 3 Zrotation Yrotation Xrotation
						End Site
						{
							OFFSET 0.000000 0.000000 0.000000
						}
					}
				}
			}
		}
	}
	JOINT RHipJoint
	{
		OFFSET 0.000000 0.000000 0.000000
		CHANNELS 3 Zrotation Yrotation Xrotation
		JOINT RightUpLeg
		{
			OFFSET -1.305520 -1.794630 0.839290
			CHANNELS 3 Zrotation Yrotation Xrotation
			JOINT RightLeg
			{
				OFFSET -2.542530 -6.985550 0.000000
				CHANNELS 3 Zrotation Yrotation Xrotation
				JOINT RightFoot
				{
					OFFSET -2.568260 -7.056230 0.000000
					CHANNELS 3 Zrotation Yrotation Xrotation
					JOINT RightToeBase
					{
						OFFSET -0.164730 -0.452590 2.363150
						CHANNELS 3 Zrotation Yrotation Xrotation
						End Site
						{
							OFFSET 0.000000 0.000000 0.000000
						}
					}
				}
			}
		}
	}
	JOINT LowerBack
	{
		OFFSET 0.000000 0.000000 0.000000
		CHANNELS 3 Zrotation Yrotation Xrotation
		JOINT Spine
		{
			OFFSET 0.028270 2.035590 -0.193380
			CHANNELS 3 Zrotation Yrotation Xrotation
			JOINT Spine1
			{
				OFFSET 0.056720 2.048850 -0.042750
				CHANNELS 3 Zrotation Yrotation Xrotation
				JOINT Neck
				{
					OFFSET 0.000000 0.000000 0.000000
					CHANNELS 3 Zrotation Yrotation Xrotation
					JOINT Neck1
					{
						OFFSET -0.054170 1.746240 0.172020
						CHANNELS 3 Zrotation Yrotation Xrotation
						JOINT Head
						{
							OFFSET 0.104070 1.761360 -0.123970
							CHANNELS 3 Zrotation Yrotation Xrotation
							End Site
							{
								OFFSET 0.000000 0.000000 0.000000
							}
						}
					}
				}
				JOINT LeftShoulder
				{
					OFFSET 0.000000 0.000000 0.000000
					CHANNELS 3 Zrotation Yrotation Xrotation
					JOINT LeftArm
					{
						OFFSET 3.362410 1.200890 -0.311210
						CHANNELS 3 Zrotation Yrotation Xrotation
						JOINT LeftForeArm
						{
							OFFSET 4.983000 -0.000000 -0.000000
							CHANNELS 3 Zrotation Yrotation Xrotation
							JOINT LeftHand
							{
								OFFSET 3.483560 -0.000000 -0.000000
								CHANNELS 3 Zrotation Yrotation Xrotation
								JOINT LeftFingerBase
								{
									OFFSET 0.000000 0.000000 0.000000
									CHANNELS 3 Zrotation Yrotation Xrotation
									JOINT LeftHandIndex1
									{
										OFFSET 0.715260 -0.000000 -0.000000
										CHANNELS 3 Zrotation Yrotation Xrotation
										End Site
										{
											OFFSET 0.000000 0.000000 0.000000
										}
									}
								}
								JOINT LThumb
								{
									OFFSET 0.000000 0.000000 0.000000
									CHANNELS 3 Zrotation Yrotation Xrotation
									End Site
									{
										OFFSET 0.000000 0.000000 0.000000
									}
								}
							}
						}
					}
				}
				JOINT RightShoulder
				{
					OFFSET 0.000000 0.000000 0.000000
					CHANNELS 3 Zrotation Yrotation Xrotation
					JOINT RightArm
					{
						OFFSET -3.136600 1.374050 -0.404650
						CHANNELS 3 Zrotation Yrotation Xrotation
						JOINT RightForeArm
						{
							OFFSET -5.241900 -0.000000 -0.000000
							CHANNELS 3 Zrotation Yrotation Xrotation
							JOINT RightHand
							{
								OFFSET -3.444170 -0.000000 -0.000000
								CHANNELS 3 Zrotation Yrotation Xrotation
								JOINT RightFingerBase
								{
									OFFSET 0.000000 0.000000 0.000000
									CHANNELS 3 Zrotation Yrotation Xrotation
									JOINT RightHandIndex1
									{
										OFFSET -0.622530 -0.000000 -0.000000
										CHANNELS 3 Zrotation Yrotation Xrotation
										End Site
										{
											OFFSET 0.000000 0.000000 0.000000
										}
									}
								}
								JOINT RThumb
								{
									OFFSET 0.000000 0.000000 0.000000
									CHANNELS 3 Zrotation Yrotation Xrotation
									End Site
									{
										OFFSET 0.000000 0.000000 0.000000
									}
								}
							}
						}
					}
				}
			}
		}
	}
}
MOTION
Frames: 9
Frame Time: 0.008333
17.938254 17.882849 23.601776 179.756591 -0.470913 -153.950071 9.639054 1.516685 -1.849276 -28.089855 -17.192093 -18.771060 -1.023569 4.460361 9.590956 0.083146 -4.986249 -15.433298 6.951900 -15.291300 -48.692300 -14.174932 -3.081785 -1.410882 32.489419 17.805674 -17.843281 0.966603 -4.073774 8.814636 -0.754983 3.951662 -18.318402 -0.503900 4.550600 -12.631200 -4.066579 0.100740 -27.171162 1.738062 -0.474241 -5.522852 0.749481 -1.478171 14.124580 -8.662924 -3.261990 -6.301747 10.056738 -6.155658 20.959542 0.934300 -2.084600 4.892100 16.044268 -1.381013 0.379921 -106.203484 -6.675898 27.105126 12.446336 -13.895401 -1.993976 -1.932813 0.833499 1.274303 21.870509 -10.988222 -5.112200 -7.125000 0.000000 0.000000 -2.339000 17.238600 1.542100 -10.989366 0.536788 -0.150083 98.779633 -0.090554 10.028666 -15.453624 26.606978 -4.800870 1.125753 4.202214 1.873041 -20.937784 -56.120802 19.224600 7.125000 0.000000 0.000000 -169.261400 -2.275200 10.491900 
17.940112 17.878805 23.603961 179.728578 -0.337644 -153.846736 9.649585 1.507399 -1.853795 -28.117579 -17.282170 -18.813645 -1.035920 4.432852 9.491902 0.111585 -4.789299 -15.425707 6.981900 -15.316600 -48.805900 -14.173188 -3.073935 -1.405278 32.394828 17.814103 -18.046452 0.962212 -4.108836 8.855230 -0.747476 4.072154 -18.308570 -0.519800 4.620600 -12.829600 -4.091774 0.149980 -27.335262 1.712094 -0.394224 -5.504891 0.753598 -1.447342 14.226358 -8.771740 -3.223408 -6.293561 10.271018 -6.148135 20.758962 1.024000 -2.083200 4.829600 16.052946 -1.432589 0.374423 -106.143458 -6.907404 27.387702 12.557297 -14.067230 -2.038146 -1.892333 0.763737 0.763710 21.455731 -10.667097 -4.846800 -7.125000 0.000000 0.000000 -2.645600 17.681100 1.718900 -10.997971 0.525707 -0.156275 98.733638 -0.000455 10.072773 -15.448089 26.542253 -4.754643 1.141250 3.935702 1.698265 -19.683898 -51.360968 17.223000 7.125000 0.000000 0.000000 -10.136100 4.501900 -170.538600 
17.942626 17.883176 23.593579 179.531058 -0.825867 -154.231427 9.636084 1.552662 -1.809962 -28.374209 -17.391914 -18.341960 -1.015400 4.388948 9.465921 0.050683 -5.087511 -15.207415 6.917700 -15.262200 -48.562300 -14.143566 -3.126014 -1.486609 32.447948 17.360189 -17.242191 0.980661 -3.848836 8.423494 -0.788807 3.678632 -18.439841 -0.544600 4.727900 -13.134100 -4.190897 -0.068490 -27.000683 1.714974 -0.587501 -5.468919 0.698993 -1.526060 14.265358 -8.775243 -3.213792 -6.313984 10.356293 -6.151136 20.669078 1.053600 -2.083700 4.806100 16.072646 -1.441023 0.372606 -106.095067 -6.992067 27.489456 12.661801 -14.240434 -2.083465 -1.870911 0.762084 0.610939 21.299576 -10.802846 -4.863600 -7.125000 0.000000 0.000000 -2.777600 17.547200 1.813000 -11.025891 0.524188 -0.142260 98.775612 0.005836 10.173938 -15.540941 26.758327 -4.847896 0.738823 4.553233 1.620783 -16.996834 -64.471460 16.480100 7.125000 0.000000 0.000000 -166.076400 -10.165600 11.604800 
17.942735 17.873560 23.600027 179.911437 -0.304538 -153.795168 9.654861 1.502721 -1.851668 -27.862338 -17.388015 -18.806543 -1.051719 4.383417 9.351455 0.146139 -4.497095 -15.308834 6.932500 -15.274800 -48.618600 -14.172841 -3.089564 -1.411129 32.640222 17.624341 -18.175081 0.951840 -4.126322 8.880866 -0.732810 4.442231 -18.270274 -0.565800 4.817500 -13.388700 -3.824183 0.267658 -27.471042 1.703937 -0.341929 -5.500637 0.618124 -1.413282 14.281898 -8.679912 -3.256047 -6.398877 10.207320 -6.139679 20.608262 0.987900 -2.079900 4.801100 16.086502 -1.435200 0.362438 -106.125766 -6.996769 27.510137 12.724359 -14.339950 -2.108293 -1.891149 0.771203 0.866732 21.564200 -10.837173 -4.944600 -7.125000 0.000000 0.000000 -2.577400 17.485100 1.685600 -11.035277 0.532960 -0.165731 98.764575 0.028442 10.513793 -15.716826 26.924902 -4.910324 1.052596 4.064932 1.375195 -19.409879 -53.922652 17.430300 7.125000 0.000000 0.000000 -10.768500 2.180900 -169.459100 
17.947980 17.879789 23.599371 179.809090 -0.490616 -153.920107 9.649302 1.510338 -1.837137 -27.934983 -17.497814 -18.663408 -1.046524 4.381319 9.366541 0.135173 -4.576550 -15.311883 6.935400 -15.277200 -48.629600 -14.165915 -3.090634 -1.424738 32.588366 17.601920 -18.031087 0.955633 -4.144993 8.979091 -0.762097 4.225244 -18.461426 -0.578300 4.869700 -13.537400 -3.946602 0.156751 -27.312912 1.718478 -0.434158 -5.503995 0.676514 -1.456580 14.227071 -8.685118 -3.254947 -6.408332 10.134323 -6.095489 20.485673 0.965100 -2.064200 4.765900 16.101713 -1.433885 0.355345 -106.145774 -7.010018 27.649223 12.805236 -14.464010 -2.139696 -1.900226 0.730720 0.871447 21.681799 -10.536039 -4.829200 -7.125000 0.000000 0.000000 -2.473300 17.842200 1.598000 -11.048737 0.543994 -0.162643 98.723550 0.029832 10.765282 -15.858003 27.176350 -5.035594 0.886908 4.438971 1.132902 -19.720755 -61.407648 18.812200 7.125000 0.000000 0.000000 -167.559700 -7.367500 11.011900 
17.952679 17.882411 23.599262 179.733795 -0.541790 -153.897614 9.653335 1.503820 -1.836870 -27.984241 -17.582730 -18.674299 -1.046852 4.399645 9.404438 0.142163 -4.565620 -15.382231 6.955000 -15.293800 -48.703800 -14.163675 -3.076401 -1.416605 32.478782 17.699957 -18.123901 0.956747 -4.207864 9.117462 -0.775859 4.108479 -18.585291 -0.578100 4.869000 -13.535200 -4.059589 0.129856 -27.335264 1.706216 -0.428786 -5.510930 0.716896 -1.460034 14.201563 -8.699669 -3.224116 -6.352492 10.130019 -6.053492 20.383141 0.967500 -2.048600 4.721800 16.116893 -1.453211 0.352363 -106.105877 -7.063547 27.844958 12.892685 -14.609475 -2.180361 -1.888120 0.737265 0.547702 21.569724 -10.787406 -4.913100 -7.125000 0.000000 0.000000 -2.575300 17.564600 1.679800 -11.055539 0.547384 -0.170083 98.704322 0.015908 10.707495 -15.920933 27.196632 -5.024575 0.996435 4.157318 1.563908 -18.895426 -56.005955 17.286900 7.125000 0.000000 0.000000 -168.604900 -1.892700 11.239300 
17.956395 17.882411 23.602322 179.657242 -0.536939 -153.817019 9.657822 1.497531 -1.836707 -28.029386 -17.612867 -18.797061 -1.044613 4.423571 9.436439 0.132223 -4.626008 -15.394023 6.881500 -15.231300 -48.424800 -14.159535 -3.073968 -1.419840 32.375410 17.631367 -18.265532 0.953882 -4.214427 9.107889 -0.766676 4.162936 -18.528278 -0.573300 4.848900 -13.478200 -4.144756 0.115977 -27.446273 1.692981 -0.410830 -5.501777 0.737755 -1.461360 14.273925 -8.740535 -3.233617 -6.337094 10.143951 -6.061636 20.278189 0.978500 -2.057900 4.681900 16.113182 -1.475305 0.350258 -106.090000 -7.231338 27.893548 12.900420 -14.616005 -2.183053 -1.891825 0.757008 0.632349 21.639199 -10.915256 -4.991400 -7.125000 0.000000 0.000000 -2.530000 17.402200 1.659200 -11.052447 0.545754 -0.164421 98.664721 0.144809 10.530384 -15.802571 27.062910 -4.978805 0.983984 4.262515 1.762250 -19.141557 -58.001774 17.812600 7.125000 0.000000 0.000000 -168.229400 -3.929100 11.179200 
17.958909 17.881756 23.604508 179.521302 -0.471417 -153.750436 9.658923 1.498743 -1.829027 -28.176208 -17.627658 -18.872071 -1.041354 4.429191 9.427765 0.114328 -4.716758 -15.361887 6.731200 -15.101300 -47.850300 -14.147536 -3.079962 -1.432330 32.214266 17.448198 -18.400951 0.943196 -4.216888 9.108616 -0.754111 4.356742 -18.454607 -0.579600 4.874900 -13.552200 -4.283952 0.080624 -27.524381 1.683405 -0.404323 -5.501187 0.790592 -1.470313 14.313996 -8.820799 -3.230226 -6.361655 10.111361 -6.019055 20.145597 0.984500 -2.045200 4.644800 16.094422 -1.492188 0.347067 -106.124531 -7.374601 27.745898 12.876081 -14.561903 -2.166873 -1.902460 0.752843 0.957018 21.789426 -10.707146 -4.935400 -7.125000 0.000000 0.000000 -2.404000 17.627300 1.564500 -11.034218 0.552654 -0.163343 98.560358 0.288439 10.592582 -15.556630 26.714643 -4.838108 1.097918 4.090902 1.090362 -20.525393 -53.915870 18.462200 7.125000 0.000000 0.000000 -10.361200 1.887500 -169.816100 
17.959455 17.880991 23.599590 179.410543 -0.395370 -153.746961 9.655331 1.510035 -1.822142 -28.369831 -17.554066 -18.833592 -1.036476 4.421329 9.417850 0.098201 -4.818248 -15.350665 6.736400 -15.105900 -47.870300 -14.128837 -3.095876 -1.449007 32.101539 17.226672 -18.424478 0.929382 -4.203472 9.101038 -0.743454 4.624611 -18.394509 -0.582000 4.884800 -13.580200 -4.380409 0.087160 -27.577606 1.661129 -0.358859 -5.501634 0.799772 -1.454350 14.318683 -8.905855 -3.142934 -6.351066 10.180900 -5.898901 19.950918 1.029000 -1.992100 4.583900 16.092616 -1.508833 0.346742 -106.119936 -7.405459 27.673159 12.900388 -14.601675 -2.176137 -1.889039 0.739883 0.924371 21.672009 -10.631965 -4.868500 -7.125000 0.000000 0.000000 -2.492100 17.732200 1.616200 -11.047155 0.541770 -0.164286 98.513713 0.297362 10.834759 -15.632824 26.845900 -4.906654 1.148550 4.186114 0.960906 -22.271688 -55.403932 20.353500 7.125000 0.000000 0.000000 -169.897200 -1.724900 9.951500 
